<svg width="640" height="480" xmlns="http://www.w3.org/2000/svg">

 <marker markerWidth="30" markerHeight="30" id="us-a">
  <path id="svg_1" d="m14,0l9,27l-23,-17l28,0l-23,17l9,-27z" fill="#fff"/>
 </marker>
 <g>
  <title>Layer 1</title>
  <path id="svg_2" d="m0,0l640,0l0,480l-640,0" fill="#bd3d44"/>
  <path id="svg_3" d="m0,55.3l640,0m-640,73.7l640,0m-640,74l640,0m-640,74l640,0m-640,74l640,0m-640,74l640,0" stroke-width="37" stroke="#fff"/>
  <path id="svg_4" d="m0,0l364.8,0l0,258.5l-364.8,0" fill="#192f5d"/>
  <path id="svg_5" d="m0,0l16,11l61,0l61,0l61,0l61,0l60,0l-273,26l61,0l61,0l60,0l61,0l-274,26l61,0l61,0l61,0l61,0l60,0l-273,26l61,0l61,0l60,0l61,0l-274,26l61,0l61,0l61,0l61,0l60,0l-273,26l61,0l61,0l60,0l61,0l-274,25l61,0l61,0l61,0l61,0l60,0l-273,26l61,0l61,0l60,0l61,0l-274,26l61,0l61,0l61,0l61,0l60,0l-320,-218z" marker-mid="url(#us-a)" fill="none"/>
  <g>
   <path fill="#8a1538" d="m-118.50002,0.29338l864.99993,0l0,481.11394l-864.99993,0"/>
   <path fill="#fff" d="m135.2333,481.40732l-253.73331,0l0,-481.11394l253.73331,0l69.19999,26.72855l-69.19999,26.72855l69.19999,26.72855l-69.19999,26.72855l69.19999,26.72855l-69.19999,26.72855l69.19999,26.72855l-69.19999,26.72855l69.19999,26.72855l-69.19999,26.72855l69.19999,26.72855l-69.19999,26.72855l69.19999,26.72855l-69.19999,26.72855l69.19999,26.72855l-69.19999,26.72855l69.19999,26.72855l-69.19999,26.72855z"/>
  </g>
 </g>
</svg>